<?xml version="1.0" encoding="utf-8"?>
<!-- Generator: Adobe Illustrator 27.0.0, SVG Export Plug-In . SVG Version: 6.00 Build 0)  -->
<svg version="1.1" id="图层_1" xmlns="http://www.w3.org/2000/svg" xmlns:xlink="http://www.w3.org/1999/xlink" x="0px" y="0px"
	 viewBox="0 0 268.93 268.59" style="enable-background:new 0 0 268.93 268.59;" xml:space="preserve">
<style type="text/css">
	.st0{fill:#FFF;}
</style>
<path class="st0" d="M121.19,181.26l-87.63,0c-3.36,0-6.08-2.72-6.08-6.08l0-27.26l0.03,0l0-0.01l93.68,0.01l9.86,0l11.09-0.02
	c3.36,0,6.07-2.73,6.07-6.08v-7.56l0-7.26c0-3.36-2.72-6.08-6.08-6.08l-7.26,0l-103.6,0.01l-3.77,0l0-0.03H0.49l0,0.02l-0.01,0
	l0,26.98l0,33.36l0,81.29c0,3.36,2.72,6.08,6.08,6.08l14.83,0.01c3.36,0,6.08-2.72,6.09-6.08l0.01-20.94l0.01-33.35l0,0l114.64,0
	c3.36,0,6.08-2.72,6.08-6.08l0-14.85c0-3.36-2.72-6.08-6.08-6.08L121.19,181.26z"/>
<path class="st0" d="M262.85,192.76l-14.87,0c-3.36,0-6.08,2.72-6.08,6.08l0,36.63c0,3.36-2.72,6.08-6.08,6.08l-47.22,0.01l-0.01,0
	V130.65c0-1.61,0.64-3.16,1.78-4.3l51.53-51.53l0,0l25.23-25.23c1.14-1.14,1.78-2.69,1.78-4.3l0-21c0-5.42-6.55-8.13-10.38-4.3
	L241.9,36.61L188.59,89.9l-0.01,0.01l0,0l-27,27l0,0l-0.01,0.01l0,38.23l0.01,0l0,0l-0.02,86.42l0.01,20.95
	c0,3.36,2.73,6.08,6.08,6.08h20.92l0,0l74.26,0c3.36,0,6.08-2.72,6.08-6.08l0-63.66C268.93,195.48,266.21,192.76,262.85,192.76z"/>
<path class="st0" d="M27.02,107.34l0-0.02l50.96,0.01l2.48,0l0-0.01h22.4l23.91-0.01l0,0v0.02l22.39,0c1.61,0,3.16-0.64,4.3-1.78
	l25.22-25.22l-0.02,0h-38.23l-0.01,0.01l-13.63,0l-0.01-0.01v0.02l0,0l-17.84-0.01c-3.36,0-6.08-2.72-6.08-6.08l-0.01-41.17
	c0-3.36,2.72-6.08,6.08-6.08l84.84,0l0,0h35.69c1.61,0,3.16-0.64,4.3-1.78l14.85-14.84C252.44,6.56,249.73,0,244.3,0l-23.54,0.01
	L102.84,0l0,0L81.92,0c-3.36,0-6.08,2.72-6.08,6.08l0,20.92l-0.01,0.01l0,47.23c0,3.36-2.72,6.08-6.08,6.08L33.1,80.33
	c-3.36,0-6.08-2.72-6.08-6.08l0-41.14c0-3.36,2.72-6.08,6.08-6.08h12.72c3.36,0,6.08-2.72,6.08-6.08l0.01-14.85
	c0-3.36-2.72-6.09-6.09-6.09l-18.8,0.01l0,0l-20.93,0C2.72,0.01,0,2.73,0,6.09l0,74.23l0,0l0,27l0,0l0,0.01L27.02,107.34z"/>
<path class="st0" d="M140.82,241.73c4.09,0,7.4,3.32,7.4,7.4v12.05c0,4.09-3.32,7.4-7.4,7.4l-18.09,0c-4.09,0-7.4-3.32-7.4-7.4
	l0-19.45h0.03L140.82,241.73z"/>
</svg>
